<svg id="paths" xmlns="http://www.w3.org/2000/svg" viewBox="0 0 223.59 100.84"><defs><style>.cls-1,.cls-11,.cls-5{fill:none;stroke:#fff;stroke-miterlimit:10;}.cls-1{stroke-width:2px;}.cls-2{font-size:5.24px;}.cls-10,.cls-2,.cls-3,.cls-4,.cls-6,.cls-8,.cls-9{fill:#fff;}.cls-10,.cls-2,.cls-3,.cls-6,.cls-8,.cls-9{font-family:Microstyle Bold Extended ATT;}.cls-3{font-size:3.08px;}.cls-5{stroke-width:4px;}.cls-6{font-size:10.17px;}.cls-7,.cls-8{font-size:3.39px;}.cls-9{font-size:4.01px;}.cls-10{font-size:7px;}.cls-11{stroke-width:7px;}</style></defs><title>dashboard</title><path class="cls-1" d="M132.38,75.75l-4.32-1.85" transform="translate(14.03 -30.88)"/><path class="cls-1" d="M137.62,60.18l3.24,3.08" transform="translate(14.03 -30.88)"/><path class="cls-1" d="M152.26,51.4l1.39,4.47" transform="translate(14.03 -30.88)"/><path class="cls-1" d="M169.21,50.47l-0.62,4.32" transform="translate(14.03 -30.88)"/><path class="cls-1" d="M184.93,57.1l-2.62,3.54" transform="translate(14.03 -30.88)"/><path class="cls-1" d="M196.18,70l-4,1.85" transform="translate(14.03 -30.88)"/><path class="cls-1" d="M196,86.23l4.47-.31" transform="translate(14.03 -30.88)"/><path class="cls-1" d="M193.41,100.87l3.85,1.85" transform="translate(14.03 -30.88)"/><path class="cls-1" d="M184,112.89l3.08,3.24" transform="translate(14.03 -30.88)"/><path class="cls-1" d="M125.75,87.61l4.16-.31" transform="translate(14.03 -30.88)"/><path class="cls-1" d="M141.93,87.31a20.71,20.71,0,0,1,2.16-9.09,21.21,21.21,0,0,1,27.74-9.56c8.28,4,10.51,12.16,10.87,13.56a22,22,0,0,1-2.31,16,20.65,20.65,0,0,1-4.47,5.24" transform="translate(14.03 -30.88)"/><text class="cls-2" transform="translate(147.49 47.79)">20</text><text class="cls-2" transform="translate(153.26 36.29)">40</text><text class="cls-2" transform="translate(194.98 44.87)">120</text><text class="cls-2" transform="translate(187.58 34.54)">100</text><text class="cls-2" transform="translate(177.68 28.58)">80</text><text class="cls-2" transform="translate(164.46 29.3)">60</text><text class="cls-2" transform="translate(198.04 57.35)">140</text><text class="cls-2" transform="translate(145.64 57.97)">0</text><text class="cls-2" transform="translate(195.7 69.99)">160</text><text class="cls-2" transform="translate(189.22 80.26)">180</text><text class="cls-3" transform="translate(188.92 83.96)">MPH</text><text class="cls-3" transform="translate(167.68 84.78)">BRAKE</text><polygon class="cls-4" points="187.14 57.97 142.09 57.09 142.09 56.01 187.14 55.58 187.14 57.97"/><path class="cls-5" d="M123.7,71.12A42.24,42.24,0,0,1,140,51.5c2.66-1.76,15.9-10.07,33.19-6.58,2.83,0.57,22.08,4.81,30.72,23.53,9.2,19.94-1.89,38.46-3.08,40.38-8.47,13.61-24.81,22.83-42.43,20.55a43.6,43.6,0,0,1-34-25.89C123.17,100.61,117.51,86.67,123.7,71.12Z" transform="translate(14.03 -30.88)"/><polyline class="cls-1" points="92.67 64.03 92.67 47.79 130.53 47.79 130.53 64.03"/><line class="cls-1" x1="94.57" y1="55.91" x2="129.09" y2="55.91"/><polyline class="cls-1" points="92.67 20.67 92.67 30.38 130.53 30 130.53 20.67"/><polyline class="cls-1" points="103.2 13.63 92.31 13.63 92.31 18.87 130.53 18.87 130.53 13.63 119.23 13.63"/><text class="cls-6" transform="translate(109.88 28.58)">0<tspan class="cls-7" x="8.29" y="0">MPH</tspan></text><text class="cls-8" transform="translate(106.8 14.86)">MPG</text><text class="cls-9" transform="translate(96.17 62.79)">003500 miles</text><rect class="cls-1" x="106.8" y="49.03" width="9.56" height="5.55"/><path class="cls-5" d="M35.13,45.23c19.65,2.14,36.1,18.95,37.3,39,1.41,23.8-19.08,45.47-43.61,44.69C6.69,128.21-11.81,109.47-12,87.46-12.28,62.47,11.13,42.62,35.13,45.23Z" transform="translate(14.03 -30.88)"/><path class="cls-1" d="M0.71,74.51L-3.6,72.67" transform="translate(14.03 -30.88)"/><path class="cls-1" d="M8,57.72l3.24,3.08" transform="translate(14.03 -30.88)"/><path class="cls-1" d="M26.26,50.35l0,4.68" transform="translate(14.03 -30.88)"/><path class="cls-1" d="M45.34,52.69l-1.95,3.9" transform="translate(14.03 -30.88)"/><path class="cls-1" d="M60.75,64.2l-3.67,2.44" transform="translate(14.03 -30.88)"/><path class="cls-1" d="M68.47,82.07c-1.34.23-2.77,0.23-4.42,0.46" transform="translate(14.03 -30.88)"/><path class="cls-1" d="M62.2,99.33l3.85,1.85" transform="translate(14.03 -30.88)"/><path class="cls-1" d="M52.34,113.51l3.08,3.24" transform="translate(14.03 -30.88)"/><text class="cls-10" transform="translate(15.82 45.55)">1</text><text class="cls-10" transform="translate(25.29 34.54)">2</text><text class="cls-10" transform="translate(71.64 53.8)">6</text><text class="cls-10" transform="translate(65.32 40.86)">5</text><text class="cls-10" transform="translate(53.72 31.35)">4</text><text class="cls-10" transform="translate(39.19 29.3)">3</text><text class="cls-10" transform="translate(70.58 69.37)">7</text><text class="cls-10" transform="translate(13.97 58.58)">0</text><text class="cls-10" transform="translate(61.88 80.26)">8</text><text class="cls-3" transform="translate(35.5 47.07)">x1000r/min</text><polygon class="cls-4" points="49.68 60.69 7.99 46.58 8.32 45.55 50.4 58.42 49.68 60.69"/><polygon class="cls-4" points="21.27 71.63 13.75 79.13 12.93 78.44 19.45 70.08 21.27 71.63"/><text class="cls-3" transform="translate(16.13 62.79)">H</text><text class="cls-3" transform="translate(27.92 79.77)">C</text><path class="cls-11" d="M72,100.2A4.79,4.79,0,0,0,74.69,103a3.3,3.3,0,0,0,1.44.1c4.09-.53,36.14-1.11,41,0.1a3,3,0,0,0,1.64,0c1.4-.44,2.16-2,2.57-3.29" transform="translate(14.03 -30.88)"/><path class="cls-11" d="M30.61,44a28,28,0,0,1,2.77-3.08A9.42,9.42,0,0,1,35,39.58a6.78,6.78,0,0,1,2.67-1c15.53-2.38,27.84-3.19,27.84-3.19,10.23-.46,4.92-0.13,22-0.77a413.58,413.58,0,0,1,41.61.77c22.22,1.48,25,3.58,28.82,4a4.1,4.1,0,0,1,1,.23,6.46,6.46,0,0,1,2.47,2c0.42,0.45.95,1,1.54,1.77" transform="translate(14.03 -30.88)"/><line class="cls-1" x1="7.99" y1="65.36" x2="12.93" y2="65.36"/><line class="cls-1" x1="10.86" y1="73.38" x2="15.26" y2="71.37"/><line class="cls-1" x1="19.19" y1="83.96" x2="21.27" y2="79.77"/><line class="cls-1" x1="24.27" y1="88.09" x2="25.29" y2="83.32"/></svg>