<?xml version="1.0" encoding="utf-8"?>
<!-- Generator: Adobe Illustrator 19.2.0, SVG Export Plug-In . SVG Version: 6.00 Build 0)  -->
<svg version="1.1" id="Layer_1" xmlns="http://www.w3.org/2000/svg" xmlns:xlink="http://www.w3.org/1999/xlink" x="0px" y="0px"
	 viewBox="0 0 571.4 1000" style="enable-background:new 0 0 571.4 1000;" xml:space="preserve">
<style type="text/css">
	.st0{fill:#FFFFFF;}
</style>
<path class="st0" d="M339.3,700.9v133.9c0,6-2.2,11.2-6.7,15.6c-4.5,4.5-9.7,6.7-15.6,6.7H183.1c-6,0-11.2-2.2-15.6-6.7
	c-4.5-4.5-6.7-9.7-6.7-15.6V700.9c0-6,2.2-11.2,6.7-15.6c4.5-4.5,9.7-6.7,15.6-6.7H317c6,0,11.2,2.2,15.6,6.7
	S339.3,694.9,339.3,700.9z M515.6,366.1c0,20.1-2.9,38.9-8.6,56.4c-5.8,17.5-12.3,31.7-19.5,42.7s-17.5,22-30.7,33.2
	c-13.2,11.2-23.9,19.3-32.1,24.3s-19.5,11.6-34,19.8c-15.3,8.6-28,20.6-38.2,36.3c-10.2,15.6-15.3,28.1-15.3,37.4
	c0,6.3-2.2,12.4-6.7,18.1c-4.5,5.8-9.7,8.6-15.6,8.6H180.8c-5.6,0-10.3-3.4-14.2-10.3s-5.9-13.9-5.9-20.9v-25.1
	c0-30.9,12.1-60,36.3-87.3c24.2-27.3,50.8-47.5,79.8-60.5c21.9-10,37.6-20.5,46.9-31.2c9.3-10.8,14-24.9,14-42.4
	c0-15.6-8.6-29.4-25.9-41.3s-37.3-17.9-60-17.9c-24.2,0-44.3,5.4-60.3,16.2c-13,9.3-32.9,30.7-59.7,64.2c-4.8,6-10.6,8.9-17.3,8.9
	c-4.5,0-9.1-1.5-13.9-4.5L9,320.9c-4.8-3.7-7.7-8.4-8.6-14s0.1-10.8,3.1-15.6c59.5-99,145.8-148.4,258.9-148.4
	c29.8,0,59.7,5.8,89.8,17.3c30.1,11.5,57.3,27,81.5,46.3c24.2,19.3,43.9,43.1,59.1,71.1S515.6,335.2,515.6,366.1L515.6,366.1z"/>
</svg>
