<svg id="Layer_1" data-name="Layer 1" xmlns="http://www.w3.org/2000/svg" viewBox="0 0 184.16 107.54"><defs><style>.cls-1,.cls-2{fill:#fff;}.cls-2{stroke:#fff;stroke-miterlimit:10;}</style></defs><title>offer</title><g id="Layer_2" data-name="Layer 2"><path class="cls-1" d="M163.5,64.62a16.39,16.39,0,0,0-6.6-.4,2.18,2.18,0,0,0-1.4,1.8c0,0.5-.7,1.8-0.8,1.6a16,16,0,0,1-1-2.3l-0.9-2.1,0.4-.4a2.09,2.09,0,0,0,.4-0.6,2.36,2.36,0,0,0-1.4-1.2,2.59,2.59,0,0,1-1.1-1.4c-2.7-6.1-5.3-10.9-6.6-12.2a5.35,5.35,0,0,0-4.1-1.6,21.74,21.74,0,0,1-3.6-.2,274.93,274.93,0,0,0-31.4-.8c-2.4.1-6.2,0.3-8.5,0.5s-4.9.3-5.9,0.4c-3.7.1-4.6,1-8.4,8.8l-2.9,5.8a2.18,2.18,0,0,1-.8.5,0.94,0.94,0,0,0-.7,1.6L78.6,63l-1,2.4c-1,2.4-1,2.4-1.3,2a6.11,6.11,0,0,1-.5-1.2c-0.3-1.9-1.1-2.2-4.7-2.1-2.9.2-3.9,0.5-4.5,1.5a5,5,0,0,0-.4,3.6c0.4,1.1,2.2,1.9,5.2,2.4,1.7,0.3,2.3.5,2.2,0.7a24.59,24.59,0,0,1-1.6,4.8l-0.6,1.4v10c0,5.5.1,14.3,0.2,19.6,0.2,9.6.2,9.6,0.6,10.3l0.5,0.7H83.2l0.5-.8c0.4-.8.5-1.1,0.5-5.5v-4.7l0.7-.1c0.7-.1.7-0.1,0.6,0.5a2,2,0,0,0,.1,1.1c0.2,0.5.4,0.5,1.6,0.5,1,0,1.3-.1,1.3-0.3a0.42,0.42,0,0,1,.3-0.4c0.4-.1.4-1.2,0-1.2a0.27,0.27,0,0,1-.3-0.3c0-.3.1-0.3,7.4-1l5.4-.5,0.7,0.5c0.7,0.5.8,0.5,4.8,0.6l4.1,0.1,0.2,0.7a0.86,0.86,0,0,0,.6.7,5.64,5.64,0,0,1,1.2.4,16.14,16.14,0,0,0,6.2-.1c1.2-.5,1.4-0.6,1.4-1.3l0.1-.7,0.3,0.7c0.1,0.4.4,1,.5,1.3a1.85,1.85,0,0,0,1.7,1.1c0.6,0,1.2-.4,2.7-1.8a7.55,7.55,0,0,1,1.4-1.1,2.62,2.62,0,0,0,1.9-.5l0.6-.5,6.1,0.6,6.4,0.6a0.3,0.3,0,1,1,0,.6c-0.2,0-.3.2-0.3,0.5a0.64,0.64,0,0,0,.2.5c0.33-.23.67-0.44,1-0.65a0.75,0.75,0,0,0,0-.45v-0.8l-6.9-.9c-6.6-.6-6.9-0.6-7.2-0.2a2.09,2.09,0,0,1-1.8.7c-0.3-.1-0.9.4-2,1.4-2.2,2-2.8,1.9-3.5-.3-0.4-1.3-1.7-1.6-1.7-.4a0.78,0.78,0,0,1-.6.9c-0.3.1-.6,0.3-0.9,0.4-0.7.4-4.6,0.2-5.7-.2-0.9-.3-1-0.4-1.1-1l-0.1-.7h-4.1c-4.1,0-4.1,0-4.6-.5a5.55,5.55,0,0,1-.6-0.8c-0.1-.2-0.2-0.2-0.6,0a58.43,58.43,0,0,1-7.1.8l-6.6.6V108c0,0.6.1,0.8,0.4,0.8s0.3,0,0,.2a1,1,0,0,0-.4.5c0,0.2-.2.3-0.7,0.3-0.9,0-1.2-.4-1-1.6l0.1-.9-1.1.1-1.1.2v-5.2l0.7-.4c0.6-.4,1.8-0.4,14.4-0.5,9.4-.1,13.9-0.2,14.3-0.4a7.76,7.76,0,0,1,4,.1,26,26,0,0,0,5.5.3h4.5l0.2,0.9a5.41,5.41,0,0,0,3.4,3.2,9.85,9.85,0,0,0,6.1-.4,4.5,4.5,0,0,0,2.5-2.9l0.1-.8,2.8,0.1a13.17,13.17,0,0,1,3.4.4l0.6,0.3v4.19a4,4,0,0,1,2.86-2.24,4.91,4.91,0,0,1,.54-0.56c-0.09-.24-0.19-0.48-0.3-0.69-0.4-.4-0.1-0.5,1.3-0.4,0.22,0,.43.07,0.65,0.11a5.34,5.34,0,0,1,2.37-.34,5,5,0,0,1,3.5.58,9.06,9.06,0,0,1,1.7,1.5c0-2.88.1-4.83,0.17-5.25,0.3-1.4.4-16.6,0.2-19.3a8,8,0,0,0-.8-3.3,5.23,5.23,0,0,1-.6-1.6,12.09,12.09,0,0,0-.5-1.8l-0.4-1.3,0.4-.1,1.9-.3a11,11,0,0,0,4.7-1.6c0.7-.6.7-0.6,0.7-2.2C165.1,65.92,164.7,65.22,163.5,64.62Zm-79.2-4.5,1-2.5c1.7-4.5,2.7-6.7,3.3-7.2a4.6,4.6,0,0,1,1.6-.7c3-.5,6-0.7,9-0.9,4.2-.1,32.9.1,36.2,0.3,5.7,0.5,7.2.8,7.9,2,0.4,0.6,3.3,7.9,3.7,9,0.1,0.5.1,0.5-.6,0.3a1.85,1.85,0,0,1-.7-0.2l-1.1-3c-1.6-4.3-2.2-5.4-3.1-5.9-2.9-1.4-34.6-1.8-48.6-.6C89,51,89.1,51,86.8,57c-1.3,3.3-1.3,3.3-2,3.4S84.1,60.42,84.3,60.12Zm60.9,0.2-16.7-.1c-9.2-.1-22.6,0-29.7.1l-13,.2a87.57,87.57,0,0,1,3.5-8.4,3.46,3.46,0,0,1,1.2-.7,74.23,74.23,0,0,1,10.5-.8c4.9-.2,23.4-0.2,28.5,0,3.7,0.1,7.4.4,11,.8a2.51,2.51,0,0,1,1.2.7,45.39,45.39,0,0,1,3,6.8Zm-66.1,1.1c1.2-.5,51.4-0.8,64.2-0.4,6.6,0.2,8.5.4,9,.9,0.3,0.3.2,0.3-.4,0.1s-7.1-.1-23.6.3c-3.9.1-4.2,0.1-4.6-.3s-0.7-.4-8.1-0.4-7.9,0-8.1.4-0.6.4-11.9,0.2C82,62,78.3,61.82,79.1,61.42Zm70.4,20.9a2.78,2.78,0,0,0,.5-4,2.72,2.72,0,0,0-2.9-1,2.49,2.49,0,0,0-2,1.7,2.26,2.26,0,0,0-.1,1.8,4.19,4.19,0,0,0,.9,1.4l0.6,0.6h-1.3a6.6,6.6,0,0,1-1.4-.1l0.3-.6a3.83,3.83,0,0,0-.1-3.3,2.79,2.79,0,0,0-2.1-1.4c-0.2,0-.4,0-0.4-0.1s2.7-.3,5.9-0.6,5.9-.6,6-0.6c0.5-.2.6-0.6,0.3-1.7-0.4-1.7-1.1-2.6-2.1-2.8-0.3-.1-0.1-0.1.4-0.1a1.11,1.11,0,0,1,1.4.5c0.7,0.9,1.2,3.2,1.4,5.8,0.1,2.8,0,3.8-.7,4.5-0.5.5-.6,0.5-2.8,0.5h-2.4Zm-1.6-.1a2.22,2.22,0,0,1-2.3-2.1,2.29,2.29,0,0,1,1.5-2.2,1.35,1.35,0,0,1,1.6-.1A2.3,2.3,0,0,1,147.9,82.22Zm-55.1-5-0.7-1.6a8.55,8.55,0,0,0-1.5-2.2c-0.8-.7-1.2-0.9-4.4-1.8l-1.4-.4-0.2-2a14.76,14.76,0,0,1-.1-2.1s1.8,0,3.9.1a48.16,48.16,0,0,0,5.1.1c5.2-.2,25.3-0.4,35.8-0.1s10.8,0.3,14.3.1l3.2-.2-0.1,1.3c-0.1.7-.2,1.7-0.3,2.1l-0.1.8-1.8.5c-3.6.9-4.5,1.6-5.5,4l-0.6,1.4H92.8Zm42.2,8.1a3.55,3.55,0,0,1-.9.4c-1,.3-35.9.3-37.1,0a3,3,0,0,1-1-.4c-0.2-.2-0.1-0.2.4,0s6.5,0.2,19.1.2c11.8,0,18.8-.1,19.1-0.2S135.1,85.22,135,85.32Zm-49.9-3a3.09,3.09,0,0,0,.9-3.7,2.94,2.94,0,0,0-4-1.1A2.73,2.73,0,0,0,80.7,79a2.81,2.81,0,0,0,.8,3.1l0.7,0.7H79.9c-1.9,0-2.4-.1-2.7-0.4-1.4-1.1-.9-8.1.8-10.6a1.09,1.09,0,0,1,1.2-.4h0.9l-1,.2a2.16,2.16,0,0,0-1.2,1.1c-0.6,1.1-.8,2.8-0.4,3.1a40.7,40.7,0,0,0,6.1.8c3.2,0.3,5.8.6,5.9,0.6a1.42,1.42,0,0,1-.6.2,3.39,3.39,0,0,0-2,1.7,3.65,3.65,0,0,0,.2,2.9l0.4,0.7h-3Zm-1.4-.2a2.48,2.48,0,0,1-2.7-2.2,3.09,3.09,0,0,1,1.5-2.2,3.08,3.08,0,0,1,2.1.4,2.46,2.46,0,0,1,.9,1.9A2.77,2.77,0,0,1,83.7,82.12Zm-4.4-11.9-0.5-.1,0.7-.7a8.12,8.12,0,0,1,3.8-2.2,3.2,3.2,0,0,1,.5,1.9,13.56,13.56,0,0,1,.2,2C83.9,71.12,81,70.62,79.3,70.22Zm9.8,4.4a4.44,4.44,0,0,1,.8,1.1l0.4,0.8H89.6c-0.7,0-8.5-.7-10.7-0.9-1-.1-1.1-0.2-1.1-0.7a8.45,8.45,0,0,1,.5-1.7l0.5-1.1,1.3,0.1c1.1,0.2,2.2.4,3.2,0.6A29.94,29.94,0,0,1,89.1,74.62Zm-0.5,3.7a2.5,2.5,0,0,1,2.5.1,2.43,2.43,0,0,1,.7,3.4,2.65,2.65,0,0,1-1.8,1.1,2.35,2.35,0,0,1-2.5-1.2A2.43,2.43,0,0,1,88.6,78.32Zm8.6-13.1c2,0,11.9-.1,22.1,0h18.4l0.4,0.6a2.73,2.73,0,0,0,1.2.9c0.7,0.3.7,0.3-.9,0.2-0.9-.1-6.5-0.2-12.3-0.4-8.3-.2-13-0.2-21.2,0-5.8.1-11.2,0.3-12.1,0.4l-1.6.1,0.9-.4a4.7,4.7,0,0,0,1.2-.9C93.6,65.32,93.8,65.32,97.2,65.22Zm-3-.2,0.5-.4c0.5-.4.6-0.4,20.9-0.4,15-.1,20.5,0,20.9.2,0.8,0.3.6,0.6-.1,0.5s-41-.2-41.7,0Zm57.2,7.2a1.14,1.14,0,0,1,1.1.5c0.5,0.7,1,2.4.8,2.6a100.53,100.53,0,0,1-12.2,1.1c-0.2-.2.6-1.6,1.3-2A39.47,39.47,0,0,1,151.4,72.22Zm-12.1,6.7a2.4,2.4,0,0,1,3.3-.7l0.2,0.2a3.13,3.13,0,0,1,.9,1.1,2.38,2.38,0,0,1-1.2,3.2,3,3,0,0,1-1,.2,2.48,2.48,0,0,1-2.7-2.3A2.05,2.05,0,0,1,139.3,78.92ZM147,71a13.56,13.56,0,0,1,.2-2c0.2-1.9.2-1.9,0.8-1.8s0.9,0.4,1.4.6c0.9,0.4,2.8,2,2.7,2.2A45.89,45.89,0,0,1,147,71Zm-70-2.2a12.7,12.7,0,0,1,4.1-3.1,1.21,1.21,0,0,1,1.5.3c0.6,0.6.6,0.7-.2,0.9a6.63,6.63,0,0,0-1.9.9,16,16,0,0,0-4.1,4.1c-0.2.6-.5,0.6-0.5,0a0.86,0.86,0,0,0-.3-0.6C75.2,71.12,75.4,70.82,77,68.82Zm-5.1-4a10.48,10.48,0,0,1,2.5.1,1.55,1.55,0,0,1,.8,1.1l0.6,1.8,0.4,0.8-0.5.6a1.43,1.43,0,0,1-1.2.6c-0.7,0-.7,0-0.4-0.4a5,5,0,0,0,0-3.4c-0.4-.8-1-1.1-2.7-1.1C70.1,64.82,70.1,64.82,71.9,64.82Zm-1.6,5.1c-2.3-.1-2.6-0.4-2.6-2.3s0.2-2.1,3.1-2.1c1.9,0,2.2.1,2.6,0.5a2.05,2.05,0,0,1,.5,1.7C73.9,69.72,73.3,70.12,70.3,69.92ZM82,116.42l-0.4.6-3.3.1a26.66,26.66,0,0,1-3.6-.1,2,2,0,0,1-.7-0.6c-0.3-.5-0.3-0.7-0.3-6.2v-5.7l0.5,0.9a6.42,6.42,0,0,0,1,1.3l0.5,0.5,2.3-.1h2.3l0.4-1c0.4-1.1,1-1.8,1.5-1.8,0.1-.1.2,0,0.2,5.7S82.4,115.82,82,116.42Zm-6.7-11.3a3.15,3.15,0,0,1,1.7-1.7,25.85,25.85,0,0,1,4-.9c0.6,0,.6,0,0.2.5a3.51,3.51,0,0,0-.6,1.4l-0.2.9-2.6.1C75.4,105.42,75.2,105.42,75.3,105.12Zm38.3-4.6c-0.5.1-6,.3-14.5,0.3-12.5.1-13.8,0.2-14.4,0.5-0.8.4-1.4,0.5-1.3,0.1s1.4-.9,3.8-1C91.6,100.22,114.6,100.22,113.6,100.52Zm-4.6-2c-3.5-.1-6.7-0.3-6.9-0.4-0.5-.2-0.5-0.2-0.5-3.3,0-3.9-.1-3.8,2.6-3.8,1.8,0.1,2,.1,2.5.6s0.6,0.6.6,2.8a7.07,7.07,0,0,0,.2,2.5c0.2,0.2,2.2.2,8,.2,6.8,0,7.8,0,8.1-.3s0.3-.8.3-2.5c0-2,0-2.2.5-2.7s0.6-.5,2.4-0.5a5.34,5.34,0,0,1,2.2.2c0.2,0.2.2,1.2,0.2,3.5V98l-0.6.1c-0.3.1-3.4,0.2-6.9,0.4C116.7,98.72,114.1,98.72,109,98.52Zm-2.1-7.8c0-.4.5-0.4,8.7-0.4,7.3-.1,8.7,0,8.7.2a1,1,0,0,1-.5.6c-0.5.3-.5,0.4-0.6,2.8v2.5l-7.6.1c-5.9,0-7.6,0-7.7-.2a21.06,21.06,0,0,1-.2-2.5c0-2,0-2.3-.4-2.5A0.82,0.82,0,0,1,106.9,90.72Zm21.3,9.8c-0.4.2-1.2,0.3-5.2,0.2a52.53,52.53,0,0,1-5.6-.3c-0.6-.2.6-0.2,5.2-0.2C128,100.22,128.5,100.32,128.2,100.52Zm6.3,4.2a1.86,1.86,0,0,1-2.1-.6,2,2,0,0,1-.4-2.2,2.07,2.07,0,0,1,2.7-1.2,4.23,4.23,0,0,0,.7.5,2.18,2.18,0,0,1,0,3A4.05,4.05,0,0,1,134.5,104.72Zm2.8-.4c-1.4.8-1.7,0.8-1.1-.1a3,3,0,0,0-.4-3.5,2.84,2.84,0,0,0-4,.1,1.38,1.38,0,0,0-.3.4,3.31,3.31,0,0,0,.1,3.2l0.5,0.8-0.9-.3a4.23,4.23,0,0,1-2.9-2.9c-0.1-.4.1-0.6,1-1.2a21.15,21.15,0,0,1,2.1-1.1,10.21,10.21,0,0,1,4.6-.1c1.4,0.3,3.3,1.6,3.3,2.2A3.61,3.61,0,0,1,137.3,104.32Zm18.5-10.6c-0.1,2.6-.1,4.8-0.2,5s-0.4.1-.9-0.2a16.19,16.19,0,0,0-5.7-1.6c-1.1-.1-5.9-0.2-10.7-0.2h-8.7l0.1-.6a14.22,14.22,0,0,0,.2-2.6c0.1-2.1-.1-3.3-0.7-3.6-0.2-.1-5.2-0.2-13.8-0.2H102l-0.4.5c-0.4.5-.4,0.6-0.4,3.5l0.1,3-10,.1c-8.2.1-10.2,0.1-11.4,0.4a9.79,9.79,0,0,0-3.7,1.4,0.62,0.62,0,0,1-.7.2c-0.1-.1-0.1-2.4-0.2-5.1l-0.1-5,0.7-.2a23.2,23.2,0,0,1,3.8-.7c0.3-.1,16.8-0.1,36.6-0.1,33.9,0.2,36.1.2,37.4,0.5C156.1,88.82,155.9,88.32,155.8,93.72Zm-0.1-22.2a1.61,1.61,0,0,0-.4.7c-0.1.4-.1,0.3-0.5-0.3-1.1-1.7-5.3-5-6.4-5-0.4,0-.4-0.1.2-0.8l0.5-.6,1,0.4a8.08,8.08,0,0,1,2,1.1,17.1,17.1,0,0,1,3.5,3.6C156,71.22,156,71.32,155.7,71.52Zm0.7-1.6c-0.9,0-1.8-1.1-1.4-1.6a7.84,7.84,0,0,0,.9-2.1c0.4-1.2.9-1.4,3.2-1.4H161l-1.6.1a6.28,6.28,0,0,0-1.9.3c-0.9.4-1.3,2.6-.7,4l0.3,0.7h-0.7Zm6.6-.7c-0.5.6-.5,0.6-2.7,0.6s-2.2,0-2.7-.6a1.79,1.79,0,0,1-.4-1.7c0.1-1.8.4-1.9,3.2-1.9,2.3-.1,2.3,0,2.7.5A2.71,2.71,0,0,1,163,69.22Z" transform="translate(-5.12 -44.69)"/><path class="cls-1" d="M105.5,69.42c-7.6.4-14.5,0.9-15.2,1.1-0.3.1-.4,0.2-0.3,0.4s0.9,0.1,2.8,0a213.37,213.37,0,0,1,22.6-.8,213.37,213.37,0,0,1,22.6.8c2.6,0.2,3.4.1,3-.2-0.1-.1-4.6-0.6-9.7-0.9C128.1,69.52,108.6,69.32,105.5,69.42Z" transform="translate(-5.12 -44.69)"/><path class="cls-2" d="M114.1,71.22a2.48,2.48,0,0,0-1.7,1.6c-0.2.8,0.7,1.7,2,1.9,2,0.4,4-.3,4.1-1.6a1.23,1.23,0,0,0-.2-1C117.6,71.22,115.5,70.82,114.1,71.22Z" transform="translate(-5.12 -44.69)"/><path class="cls-1" d="M88.4,78.52a3.09,3.09,0,0,0-1.1,2,2.47,2.47,0,0,0,1.4,2,2.27,2.27,0,0,0,3-1.2,2.92,2.92,0,0,0,.2-0.9,2.22,2.22,0,0,0-2.2-2.2A3.08,3.08,0,0,0,88.4,78.52Zm2.4,0.9a1.57,1.57,0,0,1,.1,2.2,2.18,2.18,0,0,1-.8.5,1.69,1.69,0,0,1-2-1.4v-0.5a1.63,1.63,0,0,1,1.8-1.3A1.05,1.05,0,0,1,90.8,79.42Z" transform="translate(-5.12 -44.69)"/><path class="cls-1" d="M140.1,78.52a3.09,3.09,0,0,0-1.1,2,2.47,2.47,0,0,0,1.4,2,2.27,2.27,0,0,0,3-1.2,2.92,2.92,0,0,0,.2-0.9,2.22,2.22,0,0,0-2.2-2.2A3.08,3.08,0,0,0,140.1,78.52Zm2.4,0.9a1.61,1.61,0,0,1,.5,1.1,1.82,1.82,0,0,1-1.6,1.7,2.62,2.62,0,0,1-1.8-1.6,2.6,2.6,0,0,1,.9-1.6,1.84,1.84,0,0,1,2,.4h0Z" transform="translate(-5.12 -44.69)"/><path class="cls-1" d="M132.5,101.42a1.39,1.39,0,0,0-.5,1.4,1.85,1.85,0,0,0,3.7.1,2,2,0,0,0-.3-1.1,2.06,2.06,0,0,0-2.9-.4h0Z" transform="translate(-5.12 -44.69)"/></g><path class="cls-1" d="M71.88,81.93l-1.46,0c-1.65,0-3.51,0-4.11,0a95.24,95.24,0,0,0-11,.81c-1.35.28-3.48,1.39-6.72,3.49-2.08,1.34-4.79,3.24-5.21,3.63s-0.67.39-3,.89c-6.68,1.43-7.68,1.59-11.86,1.75s-11.63.53-15.1,0.75a79.8,79.8,0,0,0-8.26,1s0,0.06.07,0.06L9,94.75a49.55,49.55,0,0,0,9.73.29A95.52,95.52,0,0,0,40.4,91.28c1-.28,2.41-0.61,3.16-0.74,2.22-.38,3.93-1.34,8.82-5,2.33-1.72,2.79-2,4.34-2.21a38.42,38.42,0,0,1,7.35.17c2,0.16,4.85.32,6.25,0.36l1.18,0A10.3,10.3,0,0,1,71.88,81.93Z" transform="translate(-5.12 -44.69)"/><path class="cls-1" d="M186,110.39a10.47,10.47,0,0,0-4.64-1.08c-2.82-.12-4.56.25-6.12,1.32-2.63,1.78-4.62,3.19-4.57,3.24s1.24-.29,3.2-1.24a20,20,0,0,1,5-1.86,10.47,10.47,0,0,1,5.68,0c1.62,0.6,3.07,2.94,3.07,5,0,1.06,0,1-1.94,1.9-1,.44-2.81,1.27-4,1.86a12.42,12.42,0,0,0-3.07,1.82,47.15,47.15,0,0,1-7.21,5.29c-0.28.14-1.83,0.61-3.45,1.05-4.42,1.2-6.17,1.75-6.75,2.08s-1.18.51-5.38,1.74a59.7,59.7,0,0,0-7.27,2.41,21.44,21.44,0,0,1-3.62,1.35,5.2,5.2,0,0,1-1.5.36c0.14-.16,2.44-1.62,6.61-4.2,4.92-3,6.86-4.42,7.5-5.37,0.17-.25.46-0.65,0.65-0.87a24.13,24.13,0,0,1,4.38-2.94c2.12-1.17,2.75-1.62,3.34-2.37,0.83-1,2.65-3.68,3.41-4.92a23.21,23.21,0,0,1,4.78-5,7.14,7.14,0,0,0,2.33-2.58,14.41,14.41,0,0,0,.86-1.77,1.84,1.84,0,0,0,0-1.34,5.55,5.55,0,0,0-1.64-2.73c-1.77-1.79-3.76-2.21-6.78-1.42-3.67,1-8.28,3.39-8.32,4.37a1.91,1.91,0,0,1-.09.54c-0.07.17-.1,0.12-0.17-0.28a6.53,6.53,0,0,0-1.2-2.52c-1.41-1.77-4.21-1.86-7.49-.23a46.81,46.81,0,0,0-10.35,8.15,22.08,22.08,0,0,0-1.52,1.71,2.12,2.12,0,0,1-1.48.86,3.27,3.27,0,0,1-1.86.24c-3.68-.51-15.33-0.51-17.11,0a0.94,0.94,0,0,1-.86-0.19c-1.2-.69-3-1-6.54-1.21a36.17,36.17,0,0,0-7.31.29,6,6,0,0,1-.76.14s-0.16-.3-0.34-0.65a24.09,24.09,0,0,0-2.38-3.59,10.1,10.1,0,0,1-1-1.33,12.08,12.08,0,0,0-1.86-.15,14.56,14.56,0,0,1,1.17,1.5c0.47,0.72,1.25,1.87,1.72,2.56a17,17,0,0,1,1.12,1.78l0.24,0.53-0.57.59c-0.31.32-.89,1-1.28,1.48-0.95,1.18-1.34,1.47-2.29,1.68a3.5,3.5,0,0,0-1,.34,0.43,0.43,0,0,0-.15.68c0.22,0.14,0,.25-0.59.34a13.34,13.34,0,0,0-2.89.89l-0.43.21-0.8-.78a11.44,11.44,0,0,0-4.37-2.41L85,114.53a15.78,15.78,0,0,0-1.64-.58c-0.06,0,5,2.88,6.44,3.63s1.84,1,2.21,1.61a0.79,0.79,0,0,1,0,.95,3.45,3.45,0,0,0-.14,1.31,1.33,1.33,0,0,1-.46,1.37c-1.61,2-2.68,4.28-2,4.28s3.14-3,3.86-4.45a1.07,1.07,0,0,0,.19-0.91c-0.09-.27,0-0.35.9-1.09,3-2.35,4.5-2.55,14-1.76,2.88,0.24,3.45.37,4.88,1.1l0.76,0.38-0.91.42a11.48,11.48,0,0,0-5,4.26,12.32,12.32,0,0,0-1,4.44,3.63,3.63,0,0,0,.06,1.48c0.2,0.12.34-.24,0.83-2.11,0.61-2.35,1-3.11,2-4.17a13.61,13.61,0,0,1,3.53-2.45,28,28,0,0,1,6.69-1.74,57.89,57.89,0,0,1,5.92-.58H127l2-1.32c4.13-2.74,6.93-4,9.39-4.08l1.27-.07,0.35-.53a36.48,36.48,0,0,1,3.46-4.15c3-3.07,6.32-5.63,8.63-6.57a5.75,5.75,0,0,1,5.69.27c1.48,0.78,2,1.49,1.87,2.39-0.06.35,0,.42,0.14,0.42a0.72,0.72,0,0,0,.42-0.2c0.2-.17.21-0.17,0.21,0s0.09,0.13.45-.19a81.13,81.13,0,0,1,8-4.86,7.81,7.81,0,0,1,1.74-.67,4.75,4.75,0,0,1,4,1.48c1.6,1.6,1.75,3.34.51,5.81-0.54,1.09-1.84,2.36-4.4,4.34-1,.76-2,1.59-2.23,1.83S167.1,115.48,166,117s-2.29,3-2.63,3.36a21.39,21.39,0,0,1-3.23,2.3c-3.37,2.14-3.71,2.41-5.31,3.95a25.33,25.33,0,0,1-4,3.33,8.63,8.63,0,0,1-3,1.43c-1.78.5-2.66,1-5,2.83s-2.67,2-6.5,3.54c-1.92.76-3.74,1.46-4,1.54a11.41,11.41,0,0,0-1.56.69c-2.18,1.17-4.67,1.69-12.08,2.56-3.55.4-5.26,0.69-5.8,1a6.9,6.9,0,0,1-1,.37,19.74,19.74,0,0,0-3.85,2,45.63,45.63,0,0,1-6.18,3.1c-2.21.74-4.28,0.67-7.28-.23-1.12-.35-3.51-1.28-6.19-2.45A100.66,100.66,0,0,0,75,141.89a22.87,22.87,0,0,1-2.6-.8,12.67,12.67,0,0,0-3.09-.8,44.12,44.12,0,0,0-5.67-.42A44.18,44.18,0,0,1,48.17,137a25.69,25.69,0,0,0-7.82-1.91,48.69,48.69,0,0,0-10-.12c-0.54.06-2.78,0.22-5,.35-5.87.35-7.54,0.57-11.16,1.46-1.86.46-4.92,1.34-4.92,1.42a0.94,0.94,0,0,0,.34.25,4.61,4.61,0,0,1,1,1.33c0.78,1.33,1.24,1.83,1.79,2,0.88,0.24,3.22-.13,7.93-1.24a26.4,26.4,0,0,1,7.17-1.09,80.37,80.37,0,0,0,10.1-.94,5.67,5.67,0,0,1,2.44.06c1.43,0.22,2.09.35,7.36,1.45,12,2.51,14.36,2.88,19.84,3l2.6,0.07,3.07,1c5.94,1.91,12.14,4.15,16.54,6,4,1.65,5.9,2.16,8.27,2.18s4.25-.64,7.12-2.46c0.73-.46,2-1.24,2.89-1.71a15.44,15.44,0,0,0,3.75-2.57l0.82-.78,1.33-.14a69.26,69.26,0,0,0,7.12-1.16c7.83-1.62,10.82-2.44,11.78-3.22a3,3,0,0,1,1.6-.64,33.52,33.52,0,0,0,4.49-1.39,5.7,5.7,0,0,1,1.69-.34c1.34-.1,1.68-0.21,6.72-2.2,5.19-2,7.29-2.73,9.8-3.22a15.26,15.26,0,0,0,4.3-1.54,13.15,13.15,0,0,1,5.1-1.6,17.53,17.53,0,0,0,6.81-1.8,15.38,15.38,0,0,0,4.57-3.47l1.68-1.64,3.47-1.62,4.74-2.19c1.48-.66,1.52-0.71,1.71-2.23A5.39,5.39,0,0,0,186,110.39Zm-53.75,4.91c-1.5.74-3.16,1.6-3.67,1.91l-0.93.54-1.56,0a40,40,0,0,0-9.8,1.86l-1.64.51-0.84-.64a12.62,12.62,0,0,0-3.85-1.93c-0.45-.08-2.49-0.14-5.76-0.14-4.55,0-5,0-4.8-.19s0.62-.47,1.08-0.86a23.85,23.85,0,0,1,3.6-2.49c1.77-1,2.12-1.18,3.11-1.28a13.12,13.12,0,0,1,3.2,0,58.39,58.39,0,0,1,6.49.87,5,5,0,0,1,3.55,3,1.38,1.38,0,0,0,.59.88,0.67,0.67,0,0,0,.45-0.78,5,5,0,0,0-1.15-2.26,5.75,5.75,0,0,1-.47-0.58,1.21,1.21,0,0,1,.54,0,6.63,6.63,0,0,0,1.42,0c0.82-.12,3.45-0.08,10.32.09l2.87,0.08Z" transform="translate(-5.12 -44.69)"/><path class="cls-1" d="M52.27,90c-0.75.1-1,.28-0.78,0.44a14,14,0,0,0,1.74.46,14.6,14.6,0,0,1,5.8,2.6,51.06,51.06,0,0,1,10.46,8.86,7.88,7.88,0,0,0,1.61,1.53,34.19,34.19,0,0,0-4.55-5.36A34.47,34.47,0,0,0,56,90.75C54,89.76,53.85,89.73,52.27,90Z" transform="translate(-5.12 -44.69)"/><path class="cls-1" d="M39.57,91.76c-0.93.5-2.57,4.12-2.58,5.66,0,0.56,0,.69.2,0.73s0.53-.4.89-1.72a7.54,7.54,0,0,1,1.41-3c0.69-1.06.88-1.48,0.74-1.7S40,91.55,39.57,91.76Z" transform="translate(-5.12 -44.69)"/><path class="cls-1" d="M72.58,105.48c-0.83-.65-1.71-1.37-2.56-2.09a18.7,18.7,0,0,0-2.63-2,83.71,83.71,0,0,0-8.25-2.7c-0.93-.23-2.29-0.52-3-0.65a12.65,12.65,0,0,0-3.88-.13C52.13,98,52.41,98.05,53,98.1a29.33,29.33,0,0,1,9.5,2.38A67.27,67.27,0,0,1,72.55,107l0.17,0.12Q72.64,106.28,72.58,105.48Z" transform="translate(-5.12 -44.69)"/><path class="cls-1" d="M96.11,114.53c-4.19-.61-6.47-1.18-8.49-2.12a24,24,0,0,0-2.57-1l-2-.62c0.07,0.81.13,1.62,0.17,2.43,3.47,1.6,4.53,1.77,10.09,1.76C98.15,115,98.64,114.89,96.11,114.53Z" transform="translate(-5.12 -44.69)"/><path class="cls-1" d="M20.39,103.14a12.39,12.39,0,0,0-4,.65,8.28,8.28,0,0,0-2.14.87c0,0.14.1,0.14,1.93-.14s1.62-.25,11.89,0c4.38,0.1,5.89-.09,6.7-0.84,0.31-.28.31-0.31,0.12-0.43S23.52,103,20.39,103.14Z" transform="translate(-5.12 -44.69)"/><path class="cls-1" d="M35.75,105.2a37.69,37.69,0,0,1-1.63,4,17.76,17.76,0,0,0-2,8.84c0,2.63.14,3.47,0.75,4.42l0.47,0.73-0.07-.69a38.7,38.7,0,0,1,0-5.44,19.26,19.26,0,0,1,1.33-5c1.46-4.12,2.33-7.28,2.19-8C36.62,102.82,36.49,102.95,35.75,105.2Z" transform="translate(-5.12 -44.69)"/><path class="cls-1" d="M160,107a4.38,4.38,0,0,0-1,.76c-0.25.27-1.27,1.09-2.26,1.83-2.21,1.64-3,2.38-3.36,3.16a1.31,1.31,0,0,1-.65.74,1.66,1.66,0,0,0-.79,1.06,17.3,17.3,0,0,1-3.95,5.65,16.92,16.92,0,0,1-5,3.59c-2.63,1.32-3.77,2.16-6.79,5a23.75,23.75,0,0,1-4.42,3.6,7,7,0,0,1-2.94,1.15,16,16,0,0,0-4.3,1.24,53.81,53.81,0,0,1-9.09,2.87,34.1,34.1,0,0,0-6,1.89,24.34,24.34,0,0,1-3,1.06,2.2,2.2,0,0,0-1.17.49,48.29,48.29,0,0,1-6.5,2.77,5.85,5.85,0,0,1-2.46.38H95l-1.08-.51a8.23,8.23,0,0,0-3.15-.89,11.66,11.66,0,0,1-1.56-.24,9.17,9.17,0,0,0-4.23.19c-0.87.2-1.68,0.36-1.78,0.36s-0.19,0-.15.06,6.25,1.69,7.5,1.91c4.71,0.81,10.38,1,12.38.39A9.85,9.85,0,0,0,107,143a5.55,5.55,0,0,1,1.85-1.28c2-.93,2.74-1.13,8.2-2.2,4.64-.91,5.87-1.26,7.42-2.08a25.86,25.86,0,0,1,5.09-2,15,15,0,0,0,4.4-1.92,59.26,59.26,0,0,0,7.35-5.7A33,33,0,0,1,146,124.2a12.91,12.91,0,0,0,4-3.64c1.53-2.33,3.08-5.55,3.12-6.5a0.9,0.9,0,0,1,.65-0.91c2.82-1.93,6-4.62,6.57-5.53a1,1,0,0,0,.28-0.87A5.84,5.84,0,0,0,160,107Z" transform="translate(-5.12 -44.69)"/><path class="cls-1" d="M28.61,112.76a21.23,21.23,0,0,0-4,.71A140.43,140.43,0,0,0,8.24,119l-1.45.58h1c0.84,0,1.27-.08,3.76-0.79a158.08,158.08,0,0,1,15.93-4c3.33-.59,5.25-1.33,4.77-1.82a5.91,5.91,0,0,0-2-.31C29.93,112.65,29.21,112.7,28.61,112.76Z" transform="translate(-5.12 -44.69)"/></svg>